<?xml version="1.0" standalone="no"?>
<!DOCTYPE svg PUBLIC "-//W3C//DTD SVG 1.1//EN" "http://www.w3.org/Graphics/SVG/1.1/DTD/svg11.dtd" >
<svg xmlns="http://www.w3.org/2000/svg">
<metadata>
This is a custom SVG webfont generated by Font Squirrel.
Copyright   : Copyright c The Font Bureau Inc 2003 All rights reserved
Designer    : Christian Schwartz
Foundry     : The Font Bureau Inc
Foundry URL : httpwwwfontbureaucom
</metadata>
<defs>
<font id="AmplitudeBoldRegular" horiz-adv-x="1024" >
<font-face units-per-em="2048" ascent="1638" descent="-410" />
<missing-glyph horiz-adv-x="438" />
<glyph unicode=" "  horiz-adv-x="438" />
<glyph unicode="&#x09;" horiz-adv-x="438" />
<glyph unicode="&#xa0;" horiz-adv-x="438" />
<glyph unicode="!" horiz-adv-x="583" d="M90 168q0 90 58.5 144.5t142.5 54.5t142.5 -54.5t58.5 -144.5t-58.5 -143.5t-142.5 -53.5t-142.5 53.5t-58.5 143.5zM106 1024v393h371v-393l-112 -539h-146z" />
<glyph unicode="&#x22;" horiz-adv-x="980" d="M80 1108v309h350v-309l-119 -377h-112zM551 1108v309h350v-309l-119 -377h-112z" />
<glyph unicode="#" horiz-adv-x="1267" d="M63 289l43 280h203l37 238h-201l43 280h201l39 246h207l-39 -246h192l39 246h207l-39 -246h209l-43 -280h-209l-37 -238h207l-43 -280h-207l-45 -289h-206l45 289h-193l-45 -289h-207l45 289h-203zM504 557h213l41 262h-213z" />
<glyph unicode="$" horiz-adv-x="1095" d="M63 63l58 244q61 -27 123.5 -48t126.5 -32l63 295q-86 14 -153.5 39t-114.5 70t-71.5 116.5t-24.5 178.5q0 205 124.5 318.5t372.5 113.5h23q12 0 22 -2l50 229l161 -35l-45 -207q111 -18 183 -49l-33 -268q-53 18 -101.5 31.5t-103.5 21.5l-61 -282q92 -16 160.5 -40 t113.5 -67t67.5 -108.5t22.5 -165.5q0 -109 -27.5 -192t-90 -139t-162 -85t-242.5 -29h-19l-61 -288l-162 36l57 265q-86 12 -147.5 34t-108.5 45zM365 954q0 -55 25.5 -82.5t109.5 -48.5l55 262q-115 -2 -152.5 -32.5t-37.5 -98.5zM539 219q100 4 142 34t42 114 q0 53 -23.5 80.5t-101.5 46.5z" />
<glyph unicode="%" horiz-adv-x="1859" d="M59 938q0 82 21.5 157.5t67 134t115 93.5t163.5 35q96 0 164.5 -35t114 -92t66 -132t20.5 -157q0 -86 -21.5 -164t-67 -137t-115 -94t-165.5 -35q-94 0 -163 35t-114 93t-65.5 135t-20.5 163zM334 877q0 -98 15.5 -135t74.5 -37t74.5 37.5t15.5 136.5v110q0 94 -15.5 130 t-74.5 36t-74.5 -37t-15.5 -131v-110zM430 0l795 1333h207l-795 -1333h-207zM1069 397q0 82 21.5 158t66.5 134.5t114.5 93t164.5 34.5q96 0 164.5 -34.5t113.5 -92t65.5 -132.5t20.5 -157q0 -86 -21.5 -163.5t-66.5 -137t-114.5 -94.5t-165.5 -35q-94 0 -163 35t-114 93.5 t-65.5 135t-20.5 162.5zM1343 336q0 -98 15.5 -135t75.5 -37q59 0 74.5 38t15.5 136v111q0 94 -15.5 129.5t-74.5 35.5t-75 -36.5t-16 -131.5v-110z" />
<glyph unicode="&#x26;" horiz-adv-x="1290" d="M63 379q0 78 20.5 136t57.5 104.5t88.5 84t114.5 72.5q-72 100 -97.5 178t-25.5 156q0 84 32 145.5t85 102.5t126 60.5t152 19.5q68 0 134.5 -19.5t119 -59.5t85 -99.5t32.5 -141.5q0 -76 -25.5 -132t-56.5 -99l-194 -113l180 -248q16 51 28.5 109.5t22.5 124.5h258 l-26 -144q-16 -88 -45 -168.5t-70 -150.5l217 -297h-375l-84 117l-69 -103q-29 -12 -81.5 -27.5t-131.5 -15.5q-221 0 -346.5 100.5t-125.5 307.5zM399 375q0 -86 46.5 -125t117.5 -39q88 0 158 41l-252 352q-35 -37 -52.5 -80t-17.5 -108v-41zM524 1102q0 -25 5.5 -46.5 t17.5 -46t33.5 -56t54.5 -76.5q53 43 73.5 92t20.5 110q0 72 -30.5 96.5t-69.5 24.5q-41 0 -73 -22.5t-32 -75.5z" />
<glyph unicode="'" horiz-adv-x="559" d="M78 1239q0 92 59.5 145.5t143.5 53.5q86 0 143 -52.5t57 -142.5q0 -70 -28.5 -129t-71.5 -129l-176 -280l-86 34l90 344l-82 25q-14 16 -31.5 49t-17.5 82z" />
<glyph unicode="(" horiz-adv-x="741" d="M106 647q0 164 35 298t86.5 237.5t107.5 176.5t101 111h287q-68 -88 -119 -176t-87 -182t-54.5 -199.5t-18.5 -228.5v-74q0 -125 18.5 -230.5t53.5 -201.5t88 -189t123 -194h-287q-43 41 -101 116t-109.5 181.5t-87.5 245.5t-36 309z" />
<glyph unicode=")" horiz-adv-x="741" d="M14 -205q70 100 123 193.5t88 189.5t53.5 201.5t18.5 230.5v74q0 123 -18.5 228.5t-54.5 199.5t-87 182t-119 176h287q45 -39 102.5 -111.5t107.5 -176t85 -237.5t35 -298q0 -170 -36 -309t-87 -245.5t-109.5 -181.5t-101.5 -116h-287z" />
<glyph unicode="*" horiz-adv-x="892" d="M61 1053l72 223l119 -39l156 -133l-78 188v125h233v-125l-78 -188l156 133l119 39l71 -223l-118 -39l-203 16l172 -106l74 -101l-189 -137l-73 100l-48 203l-47 -203l-73 -100l-189 137l74 101l172 106l-203 -16z" />
<glyph unicode="+" horiz-adv-x="1042" d="M90 518v244h303v309h256v-309h303v-244h-303v-309h-256v309h-303z" />
<glyph unicode="," horiz-adv-x="589" d="M86 178q0 98 61.5 153.5t149.5 55.5t149.5 -56.5t61.5 -146.5q0 -68 -34 -132t-79 -136l-178 -285l-88 35l96 361l-94 28q-14 16 -29.5 48t-15.5 75z" />
<glyph unicode="-" horiz-adv-x="673" d="M90 471v285h494v-285h-494z" />
<glyph unicode="." horiz-adv-x="589" d="M84 178q0 94 61.5 151.5t149.5 57.5t149.5 -57.5t61.5 -151.5t-61.5 -150.5t-149.5 -56.5t-149.5 56.5t-61.5 150.5z" />
<glyph unicode="/" horiz-adv-x="931" d="M16 -205l615 1675h258l-615 -1675h-258z" />
<glyph unicode="0" horiz-adv-x="1255" d="M76 670q0 147 32.5 273t101.5 218t173 144.5t246 52.5q143 0 247.5 -52.5t172 -143.5t99.5 -216t32 -272q0 -154 -33 -283t-101.5 -222t-173 -145.5t-247.5 -52.5t-247 51.5t-171.5 143.5t-99 221t-31.5 283zM434 618q0 -125 10.5 -203.5t34 -122.5t60 -59.5t90.5 -15.5 q53 0 90 16.5t59.5 60.5t32.5 123t10 204v122q0 115 -9 184.5t-32.5 108.5t-60.5 51.5t-92 12.5t-92 -13.5t-59.5 -52.5t-32 -109.5t-9.5 -185.5v-121z" />
<glyph unicode="1" horiz-adv-x="858" d="M90 0v207h195v762h-195v149l363 215h172v-1126h186v-207h-721z" />
<glyph unicode="2" horiz-adv-x="1034" d="M88 0v231l10 35q20 72 53 129.5t74 105.5t87 89t91 80q47 39 80 69.5t53.5 58t31 58.5t10.5 70v30q0 78 -39 103.5t-109 25.5q-74 0 -138.5 -18t-156.5 -53l-45 241q53 33 151.5 68t256.5 35q227 0 336.5 -107.5t109.5 -289.5q0 -92 -27.5 -161t-74.5 -124t-108.5 -102.5 t-127.5 -98.5q-31 -23 -60.5 -44t-56 -46t-48 -56.5t-35.5 -76.5l-9 -27l267 39h258v-264h-834z" />
<glyph unicode="3" horiz-adv-x="1009" d="M51 68l45 225q43 -16 77 -29.5t67.5 -22t67.5 -12.5t77 -4q106 0 150.5 34t44.5 120v33q0 86 -54.5 117.5t-185.5 31.5h-100v223h79q137 0 194.5 38t57.5 116v23q0 82 -49 108.5t-135 26.5q-37 0 -69.5 -3t-64.5 -10.5t-65.5 -16.5t-74.5 -22l-27 236q47 25 138 51.5 t227 26.5q111 0 198.5 -26.5t148 -73t92.5 -111t32 -141.5q0 -145 -83 -216t-237 -104q84 -12 147.5 -34.5t107.5 -61.5t66.5 -96.5t22.5 -141.5q0 -86 -33.5 -156.5t-96 -119.5t-154 -77t-205.5 -28q-160 0 -260.5 33t-145.5 64z" />
<glyph unicode="4" horiz-adv-x="1222" d="M39 276v164l506 893h424v-819h164v-238h-164v-276h-336v276h-594zM358 514h279v219l18 428l-135 -350z" />
<glyph unicode="5" horiz-adv-x="1013" d="M41 74l47 243q47 -20 85 -35.5t72 -26.5t67.5 -16.5t72.5 -5.5q98 0 146.5 35t48.5 123v37q0 98 -30 142t-99 44q-53 0 -82 -18t-52 -64l-202 29l32 772h727v-274h-489l-6 -137l-29 -177q41 37 95.5 58.5t138.5 21.5q78 0 144.5 -27.5t114.5 -80.5t75.5 -131t27.5 -176 t-33.5 -179t-96 -138.5t-153 -89.5t-202.5 -32q-170 0 -271.5 34t-148.5 69z" />
<glyph unicode="6" horiz-adv-x="1185" d="M82 520q0 143 45 266t116.5 224.5t160 182.5t171.5 140h424q-80 -61 -161.5 -126.5t-154.5 -134t-130 -143.5t-88 -155l205 121q10 2 37 2q211 0 309 -116.5t98 -323.5q0 -238 -136 -362t-382 -124q-113 0 -207 34t-162.5 102.5t-106.5 172t-38 240.5zM434 520 q0 -166 37 -237.5t131 -71.5q49 0 81 11t49.5 38t23.5 68t6 98v47q0 57 -7 95t-25.5 60.5t-50.5 32t-81 9.5t-87 -10.5t-77 -34.5v-105z" />
<glyph unicode="7" horiz-adv-x="1034" d="M61 1059v274h897v-291l-469 -1042h-350l375 836l170 245l-287 -22h-336z" />
<glyph unicode="8" horiz-adv-x="1157" d="M59 362q0 61 20.5 107.5t59.5 91.5l174 74q-41 25 -77.5 55.5t-64.5 70.5t-44 94t-16 124q0 76 25.5 144.5t81.5 120.5t148.5 83t225.5 31t220 -33t138 -84t70.5 -114.5t19.5 -127.5q0 -49 -16 -99t-39 -85l-180 -86q59 -23 111.5 -52.5t93.5 -72.5t64.5 -103.5 t23.5 -144.5q0 -80 -29 -150.5t-92.5 -122.5t-161.5 -82t-237 -30q-145 0 -245 32t-160 85t-87 123.5t-27 150.5zM385 356q0 -80 43 -118.5t143 -38.5q90 0 125 35.5t35 99.5v37q0 31 -15.5 51t-49 39.5t-88 41t-129.5 50.5q-31 -35 -47.5 -74t-16.5 -86v-37zM457 979 q0 -41 9 -66.5t31.5 -45t61.5 -35t98 -35.5q41 41 63.5 84t22.5 94v12q0 70 -26.5 102.5t-124.5 32.5q-80 0 -107.5 -33.5t-27.5 -97.5v-12z" />
<glyph unicode="9" horiz-adv-x="1183" d="M70 872q0 111 34.5 200t101 152.5t163 98.5t219.5 35q113 0 207 -34t162.5 -102.5t106.5 -171t38 -241.5q0 -143 -45 -265t-117 -223.5t-160 -181.5t-172 -139h-424q84 66 165 129.5t151.5 130t126 135t86.5 142.5l-199 -113q-10 -2 -37 -2q-104 0 -181 31.5t-127 90 t-74.5 142.5t-24.5 186zM422 846q0 -115 31.5 -164t132.5 -49q47 0 86 8t76 25q2 10 2 18v21v104q0 84 -8.5 139.5t-28 90t-51 49t-78.5 14.5q-49 0 -81 -10.5t-50.5 -35t-24.5 -64.5t-6 -99v-47z" />
<glyph unicode=":" horiz-adv-x="610" d="M94 178q0 94 61.5 151.5t149.5 57.5t149.5 -57.5t61.5 -151.5t-61.5 -150.5t-149.5 -56.5t-149.5 56.5t-61.5 150.5zM94 805q0 94 61.5 151.5t149.5 57.5t149.5 -57.5t61.5 -151.5t-61.5 -150.5t-149.5 -56.5t-149.5 56.5t-61.5 150.5z" />
<glyph unicode=";" horiz-adv-x="610" d="M94 805q0 94 61.5 151.5t149.5 57.5t149.5 -57.5t61.5 -151.5t-61.5 -150.5t-149.5 -56.5t-149.5 56.5t-61.5 150.5zM98 178q0 98 61.5 153.5t149.5 55.5t149.5 -56.5t61.5 -146.5q0 -68 -33.5 -132t-78.5 -136l-179 -285l-88 35l97 361l-95 28q-14 16 -29.5 48t-15.5 75 z" />
<glyph unicode="&#x3c;" horiz-adv-x="870" d="M80 483v250l700 352v-311l-303 -117l-215 -47l215 -47l303 -121v-295z" />
<glyph unicode="=" horiz-adv-x="1001" d="M90 315v244h821v-244h-821zM90 725v244h821v-244h-821z" />
<glyph unicode="&#x3e;" horiz-adv-x="870" d="M90 147v312l303 116l215 48l-215 47l-303 121v294l701 -335v-250z" />
<glyph unicode="?" horiz-adv-x="931" d="M37 1352q66 35 165 60.5t232 25.5q221 0 333 -103.5t112 -273.5q0 -106 -37 -177t-90.5 -116t-116 -70.5t-115.5 -42.5v-170h-256l-20 164q-8 78 25.5 117t117.5 78q68 33 95.5 64.5t27.5 101.5v28q0 72 -39 101.5t-104 29.5q-35 0 -67 -4t-65.5 -12t-69.5 -20.5 t-81 -26.5zM190 168q0 90 58.5 144.5t142.5 54.5t142.5 -54.5t58.5 -144.5t-58.5 -143.5t-142.5 -53.5t-142.5 53.5t-58.5 143.5z" />
<glyph unicode="@" horiz-adv-x="1656" d="M70 524q0 416 191.5 630t580.5 214q195 0 336 -52t232 -147.5t134 -228.5t43 -293q0 -156 -23.5 -274.5t-80 -198.5t-148.5 -121t-229 -41q-63 0 -101 6.5t-63 12.5l-63 119l-78 -97q-29 -14 -71 -27.5t-97 -13.5q-45 0 -88 14.5t-76 45t-52.5 78t-19.5 112.5 q0 86 22.5 146.5t73 100.5t130 65.5t194.5 43.5l117 19l14 92q6 37 -13.5 61.5t-78.5 24.5q-66 0 -147.5 -15.5t-161.5 -37.5v221q98 41 183 62.5t177 21.5q199 0 276 -106.5t38 -350.5l-60 -377q-6 -41 2 -53t39 -12h15q59 0 101 37t69.5 96t41 135t13.5 154v65 q0 129 -32 235.5t-103.5 182.5t-185 117t-277.5 41t-281 -40t-191.5 -123t-109.5 -210t-35 -299v-74q0 -170 32 -298t103.5 -214t186.5 -130t282 -44q117 0 235 29t234 68l37 -117q-43 -18 -99 -38t-122.5 -35t-139.5 -24.5t-147 -9.5q-389 0 -574 215t-185 637zM678 299 q0 -47 19.5 -72.5t66.5 -25.5q41 0 65.5 10t42.5 27l41 274l-96 -18q-39 -8 -65.5 -20.5t-43 -32t-23.5 -50.5t-7 -76v-16z" />
<glyph unicode="A" horiz-adv-x="1224" d="M20 0l443 1333h311l430 -1333h-362l-51 184h-416l-56 -184h-299zM442 406h285l-94 327l-43 234l-49 -234z" />
<glyph unicode="B" horiz-adv-x="1239" d="M137 0v1333h490q113 0 205 -17.5t158.5 -59.5t102 -110.5t35.5 -170.5q0 -76 -25.5 -126t-65.5 -83t-90 -51.5t-99 -30.5q51 -8 107.5 -25.5t102.5 -53.5t75.5 -94t29.5 -149q0 -188 -128 -275t-388 -87h-510zM487 258h144q98 0 134 29.5t36 103.5v49q0 78 -37 103.5 t-127 25.5h-150v-311zM487 780h144q68 0 107.5 29t39.5 102v39q0 72 -44 96.5t-126 24.5h-121v-291z" />
<glyph unicode="C" horiz-adv-x="1091" d="M74 670q0 147 29.5 273t100 218t185.5 144.5t283 52.5q111 0 202 -22.5t152 -53.5l-33 -278q-90 31 -163.5 48t-159.5 17q-55 0 -98.5 -12.5t-72 -47t-43 -100t-14.5 -172.5v-116q0 -115 17.5 -189t48.5 -116t75 -57t95 -15q86 0 156.5 26.5t150.5 63.5l66 -264 q-66 -35 -167.5 -67t-221.5 -32q-166 0 -278 54.5t-181.5 149.5t-99 222.5t-29.5 272.5z" />
<glyph unicode="D" horiz-adv-x="1308" d="M137 0v1333h510q297 0 442.5 -173t145.5 -490t-151.5 -493.5t-452.5 -176.5h-494zM487 264h136q59 0 105 13.5t77 52.5t46 109.5t15 187.5v110q0 104 -15 168t-47 97.5t-78 45t-108 11.5h-131v-795z" />
<glyph unicode="E" horiz-adv-x="1105" d="M137 0v1333h840v-278h-490v-256h406v-260h-406v-271h529v-268h-879z" />
<glyph unicode="F" horiz-adv-x="1067" d="M137 0v1333h834v-278h-484v-305h406v-261h-406v-489h-350z" />
<glyph unicode="G" horiz-adv-x="1226" d="M74 670q0 147 32.5 273t106.5 218t191.5 144.5t287.5 52.5q117 0 218.5 -20.5t166.5 -47.5l-33 -280q-92 29 -176 45t-180 16q-57 0 -103 -12t-78 -48t-48.5 -101.5t-16.5 -172.5v-116q0 -121 15.5 -197t44 -119t68.5 -58.5t87 -15.5q94 0 164 37v248h-184v227h493v-759 h-100l-92 170l-145 -166q-27 -6 -69 -11.5t-83 -5.5q-158 0 -266.5 51.5t-175 144.5t-96 221t-29.5 282z" />
<glyph unicode="H" horiz-adv-x="1335" d="M137 0v1333h350v-516h361v516h350v-1333h-350v543h-361v-543h-350z" />
<glyph unicode="I" horiz-adv-x="653" d="M152 0v1333h350v-1333h-350z" />
<glyph unicode="J" horiz-adv-x="882" d="M59 49l29 258q59 -20 98 -32.5t93 -12.5q31 0 53 9.5t37.5 35t23.5 70.5t8 117v839h351v-796q0 -109 -13.5 -211.5t-55.5 -181t-118 -126t-198 -47.5q-119 0 -190 24.5t-118 53.5z" />
<glyph unicode="K" horiz-adv-x="1247" d="M137 0v1333h350v-282l-51 -338l428 620h348l-462 -608l157 -117l320 -608h-383l-281 541l-76 -142v-399h-350z" />
<glyph unicode="L" horiz-adv-x="1009" d="M137 0v1333h350v-1065h461v-268h-811z" />
<glyph unicode="M" horiz-adv-x="1607" d="M137 0v1333h441l147 -647l59 -534l72 534l152 647h462v-1333h-346v291l68 876l-121 -614l-125 -553h-354l-125 553l-117 614l64 -880v-287h-277z" />
<glyph unicode="N" horiz-adv-x="1312" d="M137 0v1333h373l293 -581l162 -455l-86 561v475h297v-1333h-361l-307 600l-156 453l82 -568v-485h-297z" />
<glyph unicode="O" horiz-adv-x="1325" d="M74 670q0 147 32.5 273t104.5 218t183.5 144.5t269.5 52.5q160 0 271.5 -52.5t182 -143.5t102 -216t31.5 -272q0 -143 -32.5 -271.5t-104.5 -223.5t-184.5 -151.5t-270.5 -56.5t-269 54.5t-182 149.5t-102.5 222.5t-31.5 272.5zM442 616q0 -125 13.5 -202.5t41 -120.5 t69.5 -58.5t98 -15.5q57 0 98 16.5t67.5 61.5t40 124t13.5 202v122q0 115 -13.5 183.5t-40 105.5t-68.5 49.5t-102 12.5q-57 0 -98 -12.5t-67.5 -51.5t-39 -109.5t-12.5 -185.5v-121z" />
<glyph unicode="P" horiz-adv-x="1224" d="M137 0v1333h492q250 0 390 -116.5t140 -356.5q0 -236 -137 -359.5t-393 -123.5h-142v-377h-350zM487 618h127q98 0 137.5 43.5t39.5 161.5v58q0 113 -41 151.5t-140 38.5h-123v-453z" />
<glyph unicode="Q" horiz-adv-x="1325" d="M74 670q0 147 32.5 273t104.5 218t183.5 144.5t269.5 52.5q160 0 271.5 -52.5t182 -143.5t102 -216t31.5 -272q0 -193 -48 -326t-134 -225l-174 -27l305 -325l-393 -41l-158 245q-156 2 -265.5 56.5t-179 148.5t-100 220.5t-30.5 269.5zM442 616q0 -129 13.5 -208.5 t41 -122.5t69.5 -58.5t98 -15.5q57 0 98 16.5t67.5 61.5t40 126t13.5 208v122q0 115 -13.5 183.5t-40 105.5t-68.5 49.5t-102 12.5q-57 0 -98 -12.5t-67.5 -51.5t-39 -109.5t-12.5 -185.5v-121z" />
<glyph unicode="R" horiz-adv-x="1261" d="M137 0v1333h494q127 0 226 -23.5t169 -76.5t106.5 -137t36.5 -205q0 -145 -71.5 -243.5t-249.5 -133.5l164 -119l202 -395h-360l-233 479h-134v-479h-350zM487 698h129q98 0 141.5 38t43.5 124v58q0 92 -45 122.5t-144 30.5h-125v-373z" />
<glyph unicode="S" horiz-adv-x="1058" d="M68 63l55 246q86 -35 162.5 -57.5t167.5 -22.5q113 0 158.5 28t45.5 101q0 35 -9 57.5t-35.5 38t-71.5 27t-117 23.5q-82 14 -147.5 40.5t-110.5 75t-68.5 123t-23.5 183.5q0 205 117.5 318.5t357.5 113.5q131 0 218 -17.5t153 -46.5l-33 -260q-39 12 -74 21.5 t-69.5 15.5t-71.5 9t-82 3q-113 0 -155 -25.5t-42 -90.5q0 -33 7.5 -56.5t29 -40t62 -28t108.5 -21.5q90 -14 162 -39.5t121 -71.5t75.5 -118t26.5 -176q0 -109 -26.5 -192t-87 -139t-155.5 -85t-231 -29q-150 0 -245.5 28.5t-171.5 63.5z" />
<glyph unicode="T" horiz-adv-x="1103" d="M53 1055v278h998v-278h-324v-1055h-350v1055h-324z" />
<glyph unicode="U" horiz-adv-x="1314" d="M131 502v831h350v-901q0 -104 37 -152.5t121 -48.5q66 0 110 10.5t78 24.5v1067h351v-1333h-244l-68 147l-94 -143q-25 -8 -76 -20.5t-135 -12.5t-161.5 27t-137 89.5t-95.5 163.5t-36 251z" />
<glyph unicode="V" horiz-adv-x="1210" d="M20 1333h365l188 -653l56 -395l55 395l180 653h326l-432 -1333h-287z" />
<glyph unicode="W" horiz-adv-x="1718" d="M33 1333h366l103 -575l28 -510l62 510l139 575h322l135 -575l45 -510l39 510l112 575h302l-320 -1333h-322l-114 573l-56 488l-57 -488l-137 -573h-328z" />
<glyph unicode="X" horiz-adv-x="1183" d="M20 0l355 686l-338 647h393l133 -301l74 -250l63 250l121 301h322l-330 -649l350 -684h-393l-135 303l-86 264l-74 -264l-133 -303h-322z" />
<glyph unicode="Y" horiz-adv-x="1171" d="M20 1333h369l166 -432l63 -313l54 313l159 432h320l-379 -848v-485h-350v471z" />
<glyph unicode="Z" horiz-adv-x="1050" d="M76 0v283l434 655l174 176l-278 -35h-314v254h875v-291l-428 -636l-201 -207l295 45h342v-244h-899z" />
<glyph unicode="[" horiz-adv-x="737" d="M121 -229v1699h534v-229h-213v-1241h213v-229h-534z" />
<glyph unicode="\" horiz-adv-x="927" d="M43 1470h254l614 -1675h-254z" />
<glyph unicode="]" horiz-adv-x="737" d="M82 0h213v1241h-213v229h534v-1699h-534v229z" />
<glyph unicode="^" horiz-adv-x="923" d="M16 758l310 657h256l323 -657h-309l-92 229l-58 256l-57 -256l-98 -229h-275z" />
<glyph unicode="_" horiz-adv-x="714" d="M-2 -129h719v-203h-719v203z" />
<glyph unicode="`" horiz-adv-x="559" d="M78 963q0 70 28.5 129t71.5 129l176 280l86 -35l-90 -344l82 -24q14 -16 31.5 -49t17.5 -82q0 -92 -59.5 -145.5t-142.5 -53.5q-86 0 -143.5 52.5t-57.5 142.5z" />
<glyph unicode="a" horiz-adv-x="1079" d="M63 283q0 90 21.5 150.5t71 100t130.5 65.5t199 46l129 23v88q0 41 -29.5 65.5t-95.5 24.5t-152.5 -21.5t-191.5 -56.5l-45 236q31 16 76 35.5t100.5 36t119 27.5t130.5 11q111 0 189 -24.5t127 -80t70.5 -145.5t21.5 -221v-422q0 -35 12 -44t37 -9h59l7 -129 q-23 -23 -66 -45.5t-115 -22.5q-35 0 -70.5 5.5t-64.5 13.5l-100 131l-72 -103q-33 -16 -82 -31.5t-125 -15.5q-53 0 -105 16.5t-93 53.5t-67 96.5t-26 145.5zM362 305q0 -66 37 -97.5t90 -31.5q47 0 77 13.5t48 29.5v273l-108 -21q-80 -16 -112 -45t-32 -102v-19z" />
<glyph unicode="b" horiz-adv-x="1138" d="M125 -6v1476h321v-444q41 41 98.5 64.5t135.5 23.5q201 0 296 -150.5t95 -437.5q0 -266 -96 -410.5t-305 -144.5q-66 0 -117 14.5t-82 30.5l-90 127l-92 -149h-164zM446 211q33 -16 70 -26.5t80 -10.5q72 0 107.5 59.5t35.5 204.5v152q0 154 -32.5 211t-118.5 57 q-45 0 -80 -18.5t-62 -38.5v-590z" />
<glyph unicode="c" horiz-adv-x="909" d="M63 543q0 274 121 422.5t357 148.5q111 0 194.5 -24.5t124.5 -47.5l-47 -237q-53 16 -117.5 30.5t-134.5 14.5q-43 0 -74.5 -10.5t-51 -40t-30 -83.5t-10.5 -145v-47q0 -90 9.5 -147.5t30 -91t52 -47t74.5 -13.5q78 0 150.5 20.5t126.5 41.5l28 -238q-47 -27 -128 -52.5 t-197 -25.5q-236 0 -357 152t-121 420z" />
<glyph unicode="d" horiz-adv-x="1140" d="M68 532q0 164 36.5 276t95 179.5t134.5 97t151 29.5q72 0 122 -17.5t87 -43.5v417h322v-1470h-225l-80 123l-103 -127q-18 -8 -52 -16.5t-67 -8.5q-211 0 -316 142.5t-105 418.5zM399 444q0 -147 40 -208.5t122 -61.5q47 0 77 22.5t56 51.5v577q-25 12 -56.5 22.5 t-78.5 10.5q-39 0 -68.5 -10t-50 -38t-31 -76t-10.5 -124v-166z" />
<glyph unicode="e" horiz-adv-x="1026" d="M63 543q0 274 123 422.5t346 148.5q119 0 201 -36t133.5 -104.5t74 -165.5t22.5 -220v-148h-568q2 -63 12.5 -104t32 -65.5t58.5 -35t92 -10.5q86 0 160.5 21.5t136.5 40.5l37 -232q-47 -27 -140.5 -55.5t-214.5 -28.5q-256 0 -381 149t-125 423zM395 645h271v45 q0 113 -29 157t-100 44q-80 0 -109 -55.5t-33 -190.5z" />
<glyph unicode="f" horiz-adv-x="733" d="M33 877v213h121v18q0 188 81.5 289.5t258.5 101.5q86 0 150.5 -17.5t92.5 -33.5l-16 -188h-135q-59 0 -86 -17.5t-27 -66.5v-86h227v-213h-227v-877h-319v877h-121z" />
<glyph unicode="g" horiz-adv-x="1019" d="M51 -127q0 49 12.5 76.5t24.5 46.5l98 47q-59 20 -94 63.5t-35 112.5q0 90 41 143l142 93l-131 82q-23 41 -38.5 88t-15.5 116q0 104 36 176t97.5 115t142.5 62.5t169 19.5q72 0 124 -10t93 -29l293 88v-235h-240l154 -84q6 -16 11 -39t5 -57q0 -104 -35 -175t-95 -114 t-140 -61.5t-170 -18.5q-102 0 -176 24q-31 -25 -31 -65q0 -35 23.5 -53.5t82.5 -18.5h244q176 0 267 -65.5t91 -229.5q0 -104 -44 -172.5t-117.5 -108.5t-166.5 -55.5t-192 -15.5q-430 0 -430 254zM315 -61q0 -53 35 -77t144 -24q106 0 161.5 26.5t55.5 69.5v25 q0 29 -20.5 46.5t-80.5 17.5h-278q-6 -18 -11.5 -39.5t-5.5 -44.5zM371 715q0 -84 32.5 -116t96.5 -32q61 0 95 32t34 114v51q0 41 -8.5 66.5t-25.5 39t-41 17.5t-54 4q-63 0 -96 -21.5t-33 -101.5v-53z" />
<glyph unicode="h" horiz-adv-x="1138" d="M125 0v1470h321v-522l115 131q74 35 166 35q152 0 223.5 -95t71.5 -265v-754h-322v778q0 80 -104 80q-35 0 -69.5 -7t-80.5 -24v-827h-321z" />
<glyph unicode="i" horiz-adv-x="589" d="M119 1356q0 80 52 124t124 44t124 -44t52 -124t-52 -123t-124 -43t-124 43t-52 123zM135 0v1090h320v-1090h-320z" />
<glyph unicode="j" horiz-adv-x="589" d="M-86 -289l25 172h108q47 0 67.5 14.5t20.5 49.5v1143h320v-1047q0 -197 -63.5 -294t-201.5 -97q-113 0 -180 21.5t-96 37.5zM119 1356q0 80 52 124t124 44t124 -44t52 -124t-52 -123t-124 -43t-124 43t-52 123z" />
<glyph unicode="k" horiz-adv-x="1095" d="M125 0v1470h321v-509l-45 -338l328 467h334l-393 -498l151 -107l256 -485h-342l-227 471l-62 -96v-375h-321z" />
<glyph unicode="l" horiz-adv-x="593" d="M137 0v1470h320v-1470h-320z" />
<glyph unicode="m" horiz-adv-x="1689" d="M125 0v1090h225l92 -144l117 133q35 16 76 25.5t88 9.5q66 0 110 -10t72 -25l88 -137l119 137q41 16 80 25.5t86 9.5q152 0 223.5 -95t71.5 -265v-754h-322v778q0 80 -104 80q-35 0 -64.5 -8t-72.5 -23v-827h-322v778q0 41 -27.5 60.5t-76.5 19.5q-33 0 -65 -7t-73 -22 v-829h-321z" />
<glyph unicode="n" horiz-adv-x="1138" d="M125 0v1090h225l92 -146l119 135q74 35 166 35q152 0 223.5 -95t71.5 -265v-754h-322v778q0 80 -104 80q-35 0 -69.5 -7t-80.5 -22v-829h-321z" />
<glyph unicode="o" horiz-adv-x="1081" d="M63 543q0 274 122 422.5t356 148.5q231 0 354 -148.5t123 -416.5q0 -274 -123 -426t-354 -152q-233 0 -355.5 152t-122.5 420zM395 524q0 -96 7.5 -157.5t23.5 -96t44 -47t71 -12.5q41 0 69.5 12.5t45 46t23.5 94t7 154.5v45q0 98 -6 157.5t-23.5 93.5t-45 45t-70.5 11 t-72 -11t-45 -44t-22.5 -91t-6.5 -153v-47z" />
<glyph unicode="p" horiz-adv-x="1132" d="M125 -332v1422h225l84 -129l107 124q23 10 60.5 19.5t96.5 9.5q188 0 277.5 -151.5t89.5 -417.5q0 -135 -19.5 -236.5t-64.5 -169t-119 -102.5t-182 -35q-76 0 -134.5 17.5t-99.5 46.5v-398h-321zM446 231q35 -16 69 -24t73 -8q86 0 115.5 63.5t29.5 216.5v142 q0 123 -32.5 180t-104.5 57q-39 0 -77 -10t-73 -25v-592z" />
<glyph unicode="q" horiz-adv-x="1136" d="M68 557q0 268 94 412.5t282 144.5q76 0 126.5 -13.5t78.5 -25.5l103 -137l98 152h164v-1422h-322v414q-41 -35 -98 -57.5t-135 -22.5q-201 0 -296 134t-95 421zM399 479q0 -147 34 -213.5t118 -66.5q45 0 80 18.5t61 38.5v561q-35 16 -70.5 28.5t-78.5 12.5 q-70 0 -107 -57.5t-37 -179.5v-142z" />
<glyph unicode="r" horiz-adv-x="847" d="M125 0v1090h225l92 -172l119 167q31 12 64.5 20.5t76.5 8.5q51 0 82 -13.5t45 -27.5l-53 -282q-23 10 -58.5 17t-92.5 7q-47 0 -93.5 -8t-85.5 -19v-788h-321z" />
<glyph unicode="s" horiz-adv-x="911" d="M59 754q0 190 114 275t306 85q117 0 198 -20.5t130 -44.5l-45 -232q-61 18 -122.5 30.5t-121.5 12.5q-98 0 -134 -17.5t-36 -70.5q0 -27 11.5 -42t38 -26.5t70.5 -20.5t110 -21t116.5 -36t85.5 -62t53.5 -95t18.5 -139q0 -168 -106.5 -263.5t-325.5 -95.5 q-123 0 -207 23.5t-133 46.5l26 223q51 -18 118 -37.5t149 -19.5q98 0 137 21.5t39 78.5q0 33 -12.5 48.5t-40 23.5t-71.5 14t-110 21q-55 12 -102 34.5t-81 62.5t-53.5 99.5t-19.5 143.5z" />
<glyph unicode="t" horiz-adv-x="788" d="M39 877v133l315 376h125v-296h228v-213h-228v-594q0 -51 24.5 -67.5t88.5 -16.5h135l16 -176q-29 -16 -93 -34t-150 -18q-176 0 -258 101.5t-82 289.5v515h-121z" />
<glyph unicode="u" horiz-adv-x="1138" d="M117 336v754h321v-771q0 -61 25.5 -84.5t79.5 -23.5q41 0 75.5 8t73.5 25v846h322v-1090h-226l-90 141l-106 -137q-43 -16 -89 -24.5t-91 -8.5q-152 0 -223.5 97.5t-71.5 267.5z" />
<glyph unicode="v" d="M18 1090h334l123 -486l55 -471l56 471l125 486h295l-330 -1090h-311z" />
<glyph unicode="w" horiz-adv-x="1474" d="M18 1090h334l70 -410l29 -461l77 512l84 359h295l78 -359l72 -512l30 461l80 410h289l-272 -1090h-314l-73 350l-52 461l-57 -461l-80 -350h-317z" />
<glyph unicode="x" horiz-adv-x="1026" d="M29 0l297 555l-285 535h344l84 -193l63 -233l54 233l78 193h309l-266 -519l290 -571h-344l-96 221l-61 252l-60 -252l-98 -221h-309z" />
<glyph unicode="y" d="M18 1090h328l133 -451l49 -381l58 381l125 451h295l-449 -1422h-301l125 379z" />
<glyph unicode="z" horiz-adv-x="929" d="M66 0v254l364 485l156 127l-254 -24h-250v248h774v-265l-348 -467l-172 -159l260 37h274v-236h-804z" />
<glyph unicode="{" horiz-adv-x="761" d="M55 541v204q84 4 131 37t47 107q0 33 -9 66.5t-21.5 71.5t-21.5 83t-9 100q0 68 26.5 119t72.5 86t108.5 53.5t134.5 18.5q61 0 104.5 -9.5t65.5 -19.5l-16 -209h-58q-74 0 -98.5 -28.5t-7.5 -112.5l35 -174q29 -143 -42 -207.5t-221 -83.5q74 -8 129.5 -27.5t89 -54.5 t45 -87t-0.5 -128l-35 -199q-16 -84 8.5 -115.5t97.5 -31.5h58l16 -199q-10 -4 -32.5 -10t-50.5 -10t-58.5 -7t-59.5 -3q-160 0 -234.5 77.5t-74.5 206.5q0 53 9.5 101.5t20.5 92.5t20 83t9 71q0 72 -47 103t-131 35z" />
<glyph unicode="|" horiz-adv-x="481" d="M121 -205v1675h239v-1675h-239z" />
<glyph unicode="}" horiz-adv-x="761" d="M78 -199l16 199h58q74 0 98 31.5t8 115.5l-35 199q-12 76 -1 128t45 87t89.5 54.5t128.5 27.5q-150 18 -220 83t-42 208l35 174q16 84 -8.5 112.5t-97.5 28.5h-58l-16 209q23 10 65.5 19.5t104.5 9.5q72 0 134 -18.5t108.5 -53.5t73 -86t26.5 -119q0 -55 -9.5 -100 t-21.5 -83t-21.5 -71.5t-9.5 -66.5q0 -74 47.5 -106.5t131.5 -37.5v-204q-84 -4 -131.5 -35t-47.5 -103q0 -33 9.5 -71.5t20.5 -82.5t20.5 -92t9.5 -102q0 -129 -75 -206.5t-234 -77.5q-27 0 -59 3t-59.5 7t-50 10t-32.5 10z" />
<glyph unicode="~" horiz-adv-x="858" d="M53 449q0 94 17.5 170.5t48.5 132t74 85t94 29.5q59 0 93 -18.5t69 -48.5l32 -31q20 -18 32.5 -31.5t22 -21.5t19.5 -11.5t25 -3.5q35 0 51 36t16 95v21h158q0 -190 -63.5 -304t-170.5 -114q-59 0 -93 18.5t-66 47.5l-35 32q-37 35 -52.5 50.5t-45.5 15.5 q-37 0 -52.5 -37t-15.5 -98v-14h-158z" />
<glyph unicode="&#xa1;" horiz-adv-x="583" d="M92 918q0 90 58.5 143t142.5 53t142.5 -53t58.5 -143t-58.5 -144.5t-142.5 -54.5t-142.5 54.5t-58.5 144.5zM106 61l113 539h146l112 -539v-393h-371v393z" />
<glyph unicode="&#xa2;" horiz-adv-x="929" d="M63 543q0 274 121 422.5t357 148.5q47 0 87 -4t74 -12l72 235l160 -49l-328 -1065q66 8 126.5 32.5t105.5 45.5l26 -248q-49 -27 -124.5 -52.5t-198.5 -25.5h-11l-81 -270l-156 51l74 246q-152 51 -228 191.5t-76 353.5zM381 524q0 -115 15.5 -179t47.5 -95l185 604 q-33 6 -68 6q-45 0 -78.5 -11t-56.5 -43t-34 -88t-11 -147v-47z" />
<glyph unicode="&#xa3;" horiz-adv-x="1054" d="M104 545v239h134q-20 47 -36 95.5t-16 101.5q0 172 108.5 274.5t336.5 102.5q76 0 132 -6t101 -16.5t82 -27t72 -36.5l-45 -242q-47 16 -82 26.5t-66.5 15.5t-62.5 7t-68 2q-72 0 -106.5 -25.5t-34.5 -92.5v-35q0 -37 9 -72t20 -72h270v-239h-223v-6q0 -53 -16.5 -105.5 t-55.5 -99.5l-156 -109l283 39h320v-264h-875v207q115 66 154 133.5t39 146.5q0 16 -1.5 29.5t-3.5 28.5h-213z" />
<glyph unicode="&#xa4;" horiz-adv-x="675" d="M-94 0l635 1335h229l-635 -1335h-229z" />
<glyph unicode="&#xa5;" horiz-adv-x="1220" d="M66 303v240h344l-64 145h-280v240h176l-176 405h378l134 -413l63 -394l53 394l137 413h310l-172 -405h186v-240h-289l-61 -145h350v-240h-375v-303h-340v303h-374z" />
<glyph unicode="&#xa6;" horiz-adv-x="903" d="M-111 -311l52 188h79q53 0 73 18.5t28 65.5l139 832h-143v213h178l16 92q18 111 50 185.5t79 118.5t109.5 63.5t140.5 19.5q86 0 141.5 -18.5t83.5 -32.5l-51 -189h-106q-47 0 -71.5 -18.5t-33.5 -65.5l-26 -155h200v-213h-235l-129 -764q-18 -115 -50 -190t-76 -120 t-104.5 -63t-138.5 -18q-82 0 -129 17.5t-76 33.5z" />
<glyph unicode="&#xa7;" horiz-adv-x="933" d="M59 455q0 53 15.5 99t34.5 81l184 53q-43 16 -82 42t-68.5 63.5t-47 88t-17.5 115.5q0 98 29.5 167t84 112t132 62.5t174.5 19.5q117 0 197.5 -20.5t129.5 -45.5l-45 -231q-61 18 -122.5 30.5t-120.5 12.5q-98 0 -134 -17.5t-36 -68.5q0 -29 8 -45.5t30.5 -27.5 t60.5 -21.5t95 -26.5q55 -14 111.5 -35.5t101.5 -57.5t72.5 -93.5t27.5 -147.5q0 -66 -15 -115t-40 -90l-176 -49q45 -18 84 -44.5t67.5 -63.5t45 -86t16.5 -115q0 -98 -29.5 -168t-84 -113t-132.5 -62t-174 -19q-117 0 -203 23.5t-135 45.5l27 223q51 -18 117.5 -37.5 t148.5 -19.5q102 0 139 23.5t37 76.5q0 29 -11 47.5t-33.5 33t-59.5 24.5t-90 24q-70 18 -127.5 44t-98.5 66t-64.5 98.5t-23.5 144.5zM332 498q0 -57 27.5 -84t111.5 -52q72 27 101.5 54.5t29.5 83.5q0 63 -29.5 90.5t-101.5 48.5q-41 -14 -68.5 -26.5t-43 -29t-21.5 -36.5 t-6 -49z" />
<glyph unicode="&#xa8;" horiz-adv-x="1165" d="M51 399v199h129q-2 16 -2 35v37v53h-127v199h150q20 98 62 178t108.5 137t162 89t222.5 32q111 0 193.5 -20.5t144.5 -51.5l-41 -262q-43 14 -80 25.5t-71 19.5t-69.5 12t-78.5 4q-82 0 -131.5 -33.5t-71.5 -129.5h311v-199h-325v-125h325v-199h-303q27 -98 79 -135 t124 -37q84 0 150.5 26t146.5 64l65 -247q-53 -35 -152.5 -67t-230.5 -32q-119 0 -210 32t-155.5 88t-105.5 135t-63 173h-156z" />
<glyph unicode="&#xa9;" horiz-adv-x="509" d="M80 1108v309h350v-309l-119 -377h-112z" />
<glyph unicode="&#xaa;" horiz-adv-x="1056" d="M78 963q0 70 28.5 129t71.5 129l176 280l86 -35l-90 -344l82 -24q14 -16 31.5 -49t17.5 -82q0 -92 -59.5 -145.5t-142.5 -53.5q-86 0 -143.5 52.5t-57.5 142.5zM575 963q0 70 29 129t72 129l176 280l86 -35l-90 -344l82 -24q14 -16 31.5 -49t17.5 -82q0 -92 -59.5 -145.5 t-143.5 -53.5q-86 0 -143.5 52.5t-57.5 142.5z" />
<glyph unicode="&#xab;" horiz-adv-x="1062" d="M66 328v204l229 326h287l-226 -326l-110 -102l110 -100l226 -330h-285zM494 328v204l229 326h287l-226 -326l-110 -102l110 -100l226 -330h-285z" />
<glyph unicode="&#xac;" horiz-adv-x="634" d="M66 328v204l229 326h287l-226 -326l-110 -102l110 -100l226 -330h-285z" />
<glyph unicode="&#xad;" horiz-adv-x="634" d="M53 0l226 326l110 102l-110 100l-226 330h285l231 -328v-204l-229 -326h-287z" />
<glyph unicode="&#xae;" horiz-adv-x="1280" d="M39 877v213h121v18q0 188 82 289.5t258 101.5q78 0 133 -19.5t80 -31.5l-17 -188h-73q-78 0 -111 -17.5t-33 -66.5v-86h217v-213h-217v-877h-319v877h-121zM799 1356q0 80 54 124t132 44t132 -44t54 -124t-54 -123t-132 -43t-132 43t-54 123zM825 0v1090h320v-1090h-320z " />
<glyph unicode="&#xaf;" horiz-adv-x="1249" d="M39 877v213h121v18q0 188 82 289.5t258 101.5q78 0 129 -19.5t76 -31.5l-17 -188h-65q-78 0 -111 -17.5t-33 -66.5v-86h217v-213h-217v-877h-319v877h-121zM793 0v1470h319v-1470h-319z" />
<glyph unicode="&#xb1;" horiz-adv-x="950" d="M90 502v223h770v-223h-770z" />
<glyph unicode="&#xb2;" horiz-adv-x="1062" d="M78 713v288h178l190 -79l-92 217v235h355v-235l-93 -217l191 79h178v-288h-178l-197 53l99 -221v-271l-99 -606h-157l-99 606v271l99 219l-197 -51h-178z" />
<glyph unicode="&#xb3;" horiz-adv-x="1062" d="M78 43v289h178l182 -49l-84 176v127l84 176l-182 -49h-178v288h178l199 -83l-101 221v235h355v-235l-101 -219l199 81h178v-288h-178l-182 49l84 -176v-127l-84 -176l182 49h178v-289h-178l-199 84l101 -221v-236h-355v236l101 219l-199 -82h-178z" />
<glyph unicode="&#xb4;" horiz-adv-x="589" d="M84 662q0 94 61.5 151t149.5 57t149.5 -57t61.5 -151t-61.5 -150.5t-149.5 -56.5t-149.5 56.5t-61.5 150.5z" />
<glyph unicode="&#xb6;" horiz-adv-x="1134" d="M78 944q0 193 122 291t326 98h471v-1538h-184v1356h-125v-1356h-184v795l-166 -35q-123 33 -191.5 128t-68.5 261z" />
<glyph unicode="&#xb7;" horiz-adv-x="776" d="M84 662q0 72 24.5 130t66.5 99t96.5 64.5t113.5 23.5q66 0 121 -23.5t97 -64.5t65.5 -99.5t23.5 -129.5q0 -68 -23.5 -124.5t-65.5 -98.5t-97 -64.5t-121 -22.5q-59 0 -113.5 22.5t-96.5 64.5t-66.5 98.5t-24.5 124.5z" />
<glyph unicode="&#x2219;" horiz-adv-x="776" d="M84 662q0 72 24.5 130t66.5 99t96.5 64.5t113.5 23.5q66 0 121 -23.5t97 -64.5t65.5 -99.5t23.5 -129.5q0 -68 -23.5 -124.5t-65.5 -98.5t-97 -64.5t-121 -22.5q-59 0 -113.5 22.5t-96.5 64.5t-66.5 98.5t-24.5 124.5z" />
<glyph unicode="&#xb8;" horiz-adv-x="559" d="M78 188q0 92 59.5 145.5t143.5 53.5q86 0 143 -52t57 -142q0 -70 -28.5 -129.5t-71.5 -129.5l-176 -280l-86 35l90 344l-82 24q-14 16 -31.5 49t-17.5 82z" />
<glyph unicode="&#xb9;" horiz-adv-x="1056" d="M78 188q0 92 59.5 145.5t143.5 53.5q86 0 143 -52t57 -142q0 -70 -28.5 -129.5t-71.5 -129.5l-176 -280l-86 35l90 344l-82 24q-14 16 -31.5 49t-17.5 82zM575 188q0 92 59.5 145.5t143.5 53.5q86 0 143.5 -52t57.5 -142q0 -70 -28.5 -129.5t-71.5 -129.5l-177 -280 l-86 35l91 344l-82 24q-14 16 -32 49t-18 82z" />
<glyph unicode="&#xba;" horiz-adv-x="1056" d="M78 1239q0 92 59.5 145.5t143.5 53.5q86 0 143 -52.5t57 -142.5q0 -70 -28.5 -129t-71.5 -129l-176 -280l-86 34l90 344l-82 25q-14 16 -31.5 49t-17.5 82zM575 1239q0 92 59.5 145.5t143.5 53.5q86 0 143.5 -52.5t57.5 -142.5q0 -70 -28.5 -129t-71.5 -129l-177 -280 l-86 34l91 344l-82 25q-14 16 -32 49t-18 82z" />
<glyph unicode="&#xbb;" horiz-adv-x="1062" d="M53 0l226 326l110 102l-110 100l-226 330h285l231 -328v-204l-229 -326h-287zM481 0l226 326l110 102l-110 100l-226 330h285l231 -328v-204l-229 -326h-287z" />
<glyph unicode="&#xbc;" horiz-adv-x="1687" d="M84 178q0 94 61.5 151.5t149.5 57.5t149.5 -57.5t61.5 -151.5t-61.5 -150.5t-149.5 -56.5t-149.5 56.5t-61.5 150.5zM633 178q0 94 61.5 151.5t149.5 57.5t149.5 -57.5t61.5 -151.5t-61.5 -150.5t-149.5 -56.5t-149.5 56.5t-61.5 150.5zM1182 178q0 94 61.5 151.5 t149.5 57.5t149.5 -57.5t61.5 -151.5t-61.5 -150.5t-149.5 -56.5t-149.5 56.5t-61.5 150.5z" />
<glyph unicode="&#xbd;" horiz-adv-x="2672" d="M59 938q0 82 21.5 157.5t67 134t115 93.5t163.5 35q96 0 164.5 -35t114 -92t66 -132t20.5 -157q0 -86 -21.5 -164t-67 -137t-115 -94t-165.5 -35q-94 0 -163 35t-114 93t-65.5 135t-20.5 163zM334 877q0 -98 15.5 -135t74.5 -37t74.5 37.5t15.5 136.5v110q0 94 -15.5 130 t-74.5 36t-74.5 -37t-15.5 -131v-110zM430 0l795 1333h207l-795 -1333h-207zM1069 397q0 82 21.5 158t66.5 134.5t114.5 93t164.5 34.5q96 0 164.5 -34.5t113.5 -92t65.5 -132.5t20.5 -157q0 -86 -21.5 -163.5t-66.5 -137t-114.5 -94.5t-165.5 -35q-94 0 -163 35t-114 93.5 t-65.5 135t-20.5 162.5zM1343 336q0 -98 15.5 -135t75.5 -37q59 0 74.5 38t15.5 136v111q0 94 -15.5 129.5t-74.5 35.5t-75 -36.5t-16 -131.5v-110zM1882 397q0 82 21.5 158t66.5 134.5t114.5 93t164.5 34.5q96 0 164.5 -34.5t113.5 -92t65.5 -132.5t20.5 -157 q0 -86 -21.5 -163.5t-66.5 -137t-114.5 -94.5t-165.5 -35q-94 0 -163 35t-114 93.5t-65.5 135t-20.5 162.5zM2157 336q0 -98 15 -135t75 -37q59 0 74.5 38t15.5 136v111q0 94 -15.5 129.5t-74.5 35.5t-74.5 -36.5t-15.5 -131.5v-110z" />
<glyph unicode="&#xbf;" horiz-adv-x="931" d="M53 25q0 109 37 178t90 114t116.5 71t115.5 42v170h256l20 -164q4 -39 -2 -66.5t-23.5 -49t-46 -40t-71.5 -38.5q-68 -33 -95.5 -65t-27.5 -101v-29q0 -72 39 -101.5t104 -29.5q35 0 67 4t65.5 12.5t69.5 20.5l81 27l47 -246q-66 -35 -165 -60.5t-232 -25.5 q-221 0 -333 103.5t-112 273.5zM340 918q0 90 58.5 143t142.5 53t142 -53t58 -143t-58 -144.5t-142 -54.5t-142.5 54.5t-58.5 144.5z" />
<glyph unicode="&#xc0;" horiz-adv-x="1224" d="M418 1676q0 70 28.5 129t71.5 129l176 280l86 -35l-90 -344l82 -24q14 -16 31.5 -49t17.5 -82q0 -92 -59.5 -145.5t-142.5 -53.5q-86 0 -143.5 52.5t-57.5 142.5zM20 0l443 1333h311l430 -1333h-362l-51 184h-416l-56 -184h-299zM442 406h285l-94 327l-43 234l-49 -234z " />
<glyph unicode="&#xc1;" horiz-adv-x="1040" d="M190 1550h398l43 -336h-174z" />
<glyph unicode="&#xc2;" d="M369 1214l43 336h397l-266 -336h-174z" />
<glyph unicode="&#xc3;" d="M117 1214l266 361h248l270 -361h-293l-55 101l-55 151l-54 -151l-63 -101h-264z" />
<glyph unicode="&#xc4;" d="M176 1214q0 80 16.5 143.5t45 109.5t67.5 71t82 25q49 0 80 -14.5t59 -41.5l29 -24q31 -27 46 -38t40 -11q57 0 57 100v16h148q0 -80 -16.5 -143.5t-45 -109.5t-67.5 -70.5t-82 -24.5q-49 0 -80 14.5t-59 40.5l-29 25q-31 27 -46 38t-40 11q-57 0 -57 -104v-13h-148z" />
<glyph unicode="&#xc5;" d="M248 1214v256h528v-256h-528z" />
<glyph unicode="&#xc6;" d="M199 1550h219v-8q0 -66 21.5 -96.5t92.5 -30.5q72 0 93.5 31t21.5 96v8h219q-2 -59 -19.5 -120.5t-57 -110.5t-102 -81t-155.5 -32q-92 0 -154.5 32t-102 81t-57 110.5t-19.5 120.5z" />
<glyph unicode="&#xc7;" d="M344 1382q0 78 48 127.5t120 49.5t120 -49.5t48 -127.5t-48 -126t-120 -48t-120 48t-48 126z" />
<glyph unicode="&#xc8;" d="M133 1382q0 78 48 127.5t120 49.5t120 -49.5t48 -127.5t-48 -126t-120 -48t-120 48t-48 126zM555 1382q0 78 48 127.5t120 49.5t120 -49.5t48 -127.5t-48 -126t-120 -48t-120 48t-48 126z" />
<glyph unicode="&#xc9;" horiz-adv-x="1105" d="M346 1688q0 94 61.5 151t149.5 57t149.5 -57t61.5 -151t-61.5 -150.5t-149.5 -56.5t-149.5 56.5t-61.5 150.5zM137 0v1333h840v-278h-490v-256h406v-260h-406v-271h529v-268h-879z" />
<glyph unicode="&#xca;" d="M291 1432q0 63 17.5 108t48 73.5t70.5 42t85 13.5t85 -13.5t70.5 -42t48 -73.5t17.5 -108t-17.5 -107.5t-48 -73t-70.5 -42t-85 -13.5t-85 13.5t-70.5 42t-48 73t-17.5 107.5zM430 1432q0 -76 17.5 -95.5t64.5 -19.5t64.5 19.5t17.5 95.5t-17.5 96t-64.5 20t-64.5 -20 t-17.5 -96z" />
<glyph unicode="&#xcb;" d="M342 -461l12 113q41 -16 74 -25.5t68 -9.5q45 0 69.5 14.5t24.5 53.5v16q0 33 -11.5 48t-48.5 15q-31 0 -46 -7t-35 -23l-70 55l90 211h139l-73 -156l100 31q43 -16 84 -60t41 -118q0 -104 -66.5 -152.5t-169.5 -48.5q-61 0 -110 14.5t-72 28.5z" />
<glyph unicode="&#xcc;" horiz-adv-x="653" d="M127 1676q0 70 28.5 129t71.5 129l176 280l86 -35l-90 -344l82 -24q14 -16 31.5 -49t17.5 -82q0 -92 -59.5 -145.5t-142.5 -53.5q-86 0 -143.5 52.5t-57.5 142.5zM152 0v1333h350v-1333h-350z" />
<glyph unicode="&#xcd;" d="M246 1214l73 336h310l-205 -336h-178zM621 1214l73 336h310l-205 -336h-178z" />
<glyph unicode="&#xce;" d="M319 -313q0 45 19.5 89t50.5 85t69 75.5t72 63.5h119l-104 -172q-25 -41 -34 -68.5t-9 -66.5q0 -76 73 -76q33 0 66 9t74 26l12 -113q-23 -14 -72 -28.5t-110 -14.5q-104 0 -165 49.5t-61 141.5z" />
<glyph unicode="&#xcf;" d="M123 1575h293l55 -100l55 -152l54 152l63 100h264l-266 -361h-248z" />
<glyph unicode="&#xd0;" horiz-adv-x="1390" d="M90 502v223h1210v-223h-1210z" />
<glyph unicode="&#xd1;" horiz-adv-x="1312" d="M280 1496q0 94 17.5 170.5t48.5 132t74 85t94 29.5q59 0 93 -18.5t69 -48.5l32 -31q20 -18 32.5 -31.5t22 -21.5t19.5 -11.5t25 -3.5q35 0 51 36t16 95v21h158q0 -190 -63.5 -304t-170.5 -114q-59 0 -93 18.5t-66 47.5l-35 32q-37 35 -52.5 50.5t-45.5 15.5 q-37 0 -52.5 -37t-15.5 -98v-14h-158zM137 0v1333h373l293 -581l162 -455l-86 561v475h297v-1333h-361l-307 600l-156 453l82 -568v-485h-297z" />
<glyph unicode="&#xd2;" horiz-adv-x="1325" d="M463 1676q0 70 28.5 129t71.5 129l176 280l86 -35l-90 -344l82 -24q14 -16 31.5 -49t17.5 -82q0 -92 -59.5 -145.5t-142.5 -53.5q-86 0 -143.5 52.5t-57.5 142.5zM74 670q0 147 32.5 273t104.5 218t183.5 144.5t269.5 52.5q160 0 271.5 -52.5t182 -143.5t102 -216 t31.5 -272q0 -143 -32.5 -271.5t-104.5 -223.5t-184.5 -151.5t-270.5 -56.5t-269 54.5t-182 149.5t-102.5 222.5t-31.5 272.5zM442 616q0 -125 13.5 -202.5t41 -120.5t69.5 -58.5t98 -15.5q57 0 98 16.5t67.5 61.5t40 124t13.5 202v122q0 115 -13.5 183.5t-40 105.5 t-68.5 49.5t-102 12.5q-57 0 -98 -12.5t-67.5 -51.5t-39 -109.5t-12.5 -185.5v-121z" />
<glyph unicode="&#xd3;" horiz-adv-x="1325" d="M453 1688q0 94 61.5 151t149.5 57t149.5 -57t61.5 -151t-61.5 -150.5t-149.5 -56.5t-149.5 56.5t-61.5 150.5zM74 670q0 147 32.5 273t104.5 218t183.5 144.5t269.5 52.5q160 0 271.5 -52.5t182 -143.5t102 -216t31.5 -272q0 -143 -32.5 -271.5t-104.5 -223.5 t-184.5 -151.5t-270.5 -56.5t-269 54.5t-182 149.5t-102.5 222.5t-31.5 272.5zM442 616q0 -125 13.5 -202.5t41 -120.5t69.5 -58.5t98 -15.5q57 0 98 16.5t67.5 61.5t40 124t13.5 202v122q0 115 -13.5 183.5t-40 105.5t-68.5 49.5t-102 12.5q-57 0 -98 -12.5t-67.5 -51.5 t-39 -109.5t-12.5 -185.5v-121z" />
<glyph unicode="&#xd4;" horiz-adv-x="1325" d="M219 1481l310 657h256l323 -657h-309l-92 229l-58 256l-57 -256l-98 -229h-275zM74 670q0 147 32.5 273t104.5 218t183.5 144.5t269.5 52.5q160 0 271.5 -52.5t182 -143.5t102 -216t31.5 -272q0 -143 -32.5 -271.5t-104.5 -223.5t-184.5 -151.5t-270.5 -56.5t-269 54.5 t-182 149.5t-102.5 222.5t-31.5 272.5zM442 616q0 -125 13.5 -202.5t41 -120.5t69.5 -58.5t98 -15.5q57 0 98 16.5t67.5 61.5t40 124t13.5 202v122q0 115 -13.5 183.5t-40 105.5t-68.5 49.5t-102 12.5q-57 0 -98 -12.5t-67.5 -51.5t-39 -109.5t-12.5 -185.5v-121z" />
<glyph unicode="&#xd5;" horiz-adv-x="1325" d="M286 1496q0 94 17.5 170.5t48.5 132t74 85t94 29.5q59 0 93 -18.5t69 -48.5l32 -31q20 -18 32.5 -31.5t22 -21.5t19.5 -11.5t25 -3.5q35 0 51 36t16 95v21h158q0 -190 -63.5 -304t-170.5 -114q-59 0 -93 18.5t-66 47.5l-35 32q-37 35 -52.5 50.5t-45.5 15.5 q-37 0 -52.5 -37t-15.5 -98v-14h-158zM74 670q0 147 32.5 273t104.5 218t183.5 144.5t269.5 52.5q160 0 271.5 -52.5t182 -143.5t102 -216t31.5 -272q0 -143 -32.5 -271.5t-104.5 -223.5t-184.5 -151.5t-270.5 -56.5t-269 54.5t-182 149.5t-102.5 222.5t-31.5 272.5z M442 616q0 -125 13.5 -202.5t41 -120.5t69.5 -58.5t98 -15.5q57 0 98 16.5t67.5 61.5t40 124t13.5 202v122q0 115 -13.5 183.5t-40 105.5t-68.5 49.5t-102 12.5q-57 0 -98 -12.5t-67.5 -51.5t-39 -109.5t-12.5 -185.5v-121z" />
<glyph unicode="&#xd6;" horiz-adv-x="1325" d="M127 1908v199h129q-2 16 -2 35v37v53h-127v199h150q20 98 62 178t108.5 137t162 89t222.5 32q111 0 193.5 -20.5t144.5 -51.5l-41 -262q-43 14 -80 25.5t-71 19.5t-69.5 12t-78.5 4q-82 0 -131.5 -33.5t-71.5 -129.5h311v-199h-325v-125h325v-199h-303q27 -98 79 -135 t124 -37q84 0 150.5 26t146.5 64l65 -247q-53 -35 -152.5 -67t-230.5 -32q-119 0 -210 32t-155.5 88t-105.5 135t-63 173h-156zM74 670q0 147 32.5 273t104.5 218t183.5 144.5t269.5 52.5q160 0 271.5 -52.5t182 -143.5t102 -216t31.5 -272q0 -143 -32.5 -271.5 t-104.5 -223.5t-184.5 -151.5t-270.5 -56.5t-269 54.5t-182 149.5t-102.5 222.5t-31.5 272.5zM442 616q0 -125 13.5 -202.5t41 -120.5t69.5 -58.5t98 -15.5q57 0 98 16.5t67.5 61.5t40 124t13.5 202v122q0 115 -13.5 183.5t-40 105.5t-68.5 49.5t-102 12.5q-57 0 -98 -12.5 t-67.5 -51.5t-39 -109.5t-12.5 -185.5v-121z" />
<glyph unicode="&#xd9;" horiz-adv-x="1314" d="M455 1676q0 70 28.5 129t71.5 129l176 280l86 -35l-90 -344l82 -24q14 -16 31.5 -49t17.5 -82q0 -92 -59.5 -145.5t-142.5 -53.5q-86 0 -143.5 52.5t-57.5 142.5zM131 502v831h350v-901q0 -104 37 -152.5t121 -48.5q66 0 110 10.5t78 24.5v1067h351v-1333h-244l-68 147 l-94 -143q-25 -8 -76 -20.5t-135 -12.5t-161.5 27t-137 89.5t-95.5 163.5t-36 251z" />
<glyph unicode="&#xda;" horiz-adv-x="1314" d="M444 1688q0 94 61.5 151t149.5 57t149.5 -57t61.5 -151t-61.5 -150.5t-149.5 -56.5t-149.5 56.5t-61.5 150.5zM131 502v831h350v-901q0 -104 37 -152.5t121 -48.5q66 0 110 10.5t78 24.5v1067h351v-1333h-244l-68 147l-94 -143q-25 -8 -76 -20.5t-135 -12.5t-161.5 27 t-137 89.5t-95.5 163.5t-36 251z" />
<glyph unicode="&#xdb;" horiz-adv-x="1314" d="M209 1481l310 657h256l323 -657h-309l-92 229l-58 256l-57 -256l-98 -229h-275zM131 502v831h350v-901q0 -104 37 -152.5t121 -48.5q66 0 110 10.5t78 24.5v1067h351v-1333h-244l-68 147l-94 -143q-25 -8 -76 -20.5t-135 -12.5t-161.5 27t-137 89.5t-95.5 163.5t-36 251z " />
<glyph unicode="&#xdc;" horiz-adv-x="1314" d="M117 1908v199h129q-2 16 -2 35v37v53h-127v199h150q20 98 62 178t108.5 137t162 89t222.5 32q111 0 193.5 -20.5t144.5 -51.5l-41 -262q-43 14 -80 25.5t-71 19.5t-69.5 12t-78.5 4q-82 0 -131.5 -33.5t-71.5 -129.5h311v-199h-325v-125h325v-199h-303q27 -98 79 -135 t124 -37q84 0 150.5 26t146.5 64l65 -247q-53 -35 -152.5 -67t-230.5 -32q-119 0 -210 32t-155.5 88t-105.5 135t-63 173h-156zM131 502v831h350v-901q0 -104 37 -152.5t121 -48.5q66 0 110 10.5t78 24.5v1067h351v-1333h-244l-68 147l-94 -143q-25 -8 -76 -20.5t-135 -12.5 t-161.5 27t-137 89.5t-95.5 163.5t-36 251z" />
<glyph unicode="&#xdd;" horiz-adv-x="1171" d="M375 1688q0 94 61.5 151t149.5 57t149.5 -57t61.5 -151t-61.5 -150.5t-149.5 -56.5t-149.5 56.5t-61.5 150.5zM20 1333h369l166 -432l63 -313l54 313l159 432h320l-379 -848v-485h-350v471z" />
<glyph unicode="&#xe0;" horiz-adv-x="1079" d="M326 1432q0 70 28.5 129t71.5 129l176 280l86 -35l-90 -344l82 -24q14 -16 31.5 -49t17.5 -82q0 -92 -59.5 -145.5t-142.5 -53.5q-86 0 -143.5 52.5t-57.5 142.5zM63 283q0 90 21.5 150.5t71 100t130.5 65.5t199 46l129 23v88q0 41 -29.5 65.5t-95.5 24.5t-152.5 -21.5 t-191.5 -56.5l-45 236q31 16 76 35.5t100.5 36t119 27.5t130.5 11q111 0 189 -24.5t127 -80t70.5 -145.5t21.5 -221v-422q0 -35 12 -44t37 -9h59l7 -129q-23 -23 -66 -45.5t-115 -22.5q-35 0 -70.5 5.5t-64.5 13.5l-100 131l-72 -103q-33 -16 -82 -31.5t-125 -15.5 q-53 0 -105 16.5t-93 53.5t-67 96.5t-26 145.5zM362 305q0 -66 37 -97.5t90 -31.5q47 0 77 13.5t48 29.5v273l-108 -21q-80 -16 -112 -45t-32 -102v-19z" />
<glyph unicode="&#xe1;" horiz-adv-x="1828" d="M25 0l729 1333h946v-278h-490v-256h406v-260h-406v-271h529v-268h-869v184h-411l-94 -184h-340zM571 406h299v405l31 383l-123 -383z" />
<glyph unicode="&#xe2;" horiz-adv-x="1079" d="M82 1237l310 657h256l323 -657h-309l-92 229l-58 256l-57 -256l-98 -229h-275zM63 283q0 90 21.5 150.5t71 100t130.5 65.5t199 46l129 23v88q0 41 -29.5 65.5t-95.5 24.5t-152.5 -21.5t-191.5 -56.5l-45 236q31 16 76 35.5t100.5 36t119 27.5t130.5 11q111 0 189 -24.5 t127 -80t70.5 -145.5t21.5 -221v-422q0 -35 12 -44t37 -9h59l7 -129q-23 -23 -66 -45.5t-115 -22.5q-35 0 -70.5 5.5t-64.5 13.5l-100 131l-72 -103q-33 -16 -82 -31.5t-125 -15.5q-53 0 -105 16.5t-93 53.5t-67 96.5t-26 145.5zM362 305q0 -66 37 -97.5t90 -31.5 q47 0 77 13.5t48 29.5v273l-108 -21q-80 -16 -112 -45t-32 -102v-19z" />
<glyph unicode="&#xe3;" horiz-adv-x="972" d="M88 662q0 76 18.5 128t60.5 86.5t109.5 56t165.5 34.5l109 14v63q0 47 -23.5 65.5t-81.5 18.5q-57 0 -128.5 -18t-159.5 -47l-37 209q55 29 150.5 57.5t211.5 28.5q96 0 163 -21.5t108 -68.5t59 -122t18 -181v-353q0 -29 10.5 -38t30.5 -9h46l4 -114q-20 -16 -67.5 -32 t-104.5 -16q-29 0 -56.5 4.5t-52.5 10.5l-76 110l-59 -92q-29 -14 -67 -23.5t-99 -9.5q-45 0 -90 13.5t-81 44.5t-58.5 80t-22.5 121zM354 680q0 -53 24.5 -76.5t67.5 -23.5q39 0 64 13t41 30v208l-92 -14q-59 -10 -82 -35.5t-23 -85.5v-16z" />
<glyph unicode="&#xe4;" horiz-adv-x="1079" d="M-10 1665v199h129q-2 16 -2 35v37v53h-127v199h150q20 98 62 178t108.5 137t162 89t222.5 32q111 0 193.5 -20.5t144.5 -51.5l-41 -262q-43 14 -80 25.5t-71 19.5t-69.5 12t-78.5 4q-82 0 -131.5 -33.5t-71.5 -129.5h311v-199h-325v-125h325v-199h-303q27 -98 79 -135 t124 -37q84 0 150.5 26t146.5 64l65 -247q-53 -35 -152.5 -67t-230.5 -32q-119 0 -210 32t-155.5 88t-105.5 135t-63 173h-156zM63 283q0 90 21.5 150.5t71 100t130.5 65.5t199 46l129 23v88q0 41 -29.5 65.5t-95.5 24.5t-152.5 -21.5t-191.5 -56.5l-45 236q31 16 76 35.5 t100.5 36t119 27.5t130.5 11q111 0 189 -24.5t127 -80t70.5 -145.5t21.5 -221v-422q0 -35 12 -44t37 -9h59l7 -129q-23 -23 -66 -45.5t-115 -22.5q-35 0 -70.5 5.5t-64.5 13.5l-100 131l-72 -103q-33 -16 -82 -31.5t-125 -15.5q-53 0 -105 16.5t-93 53.5t-67 96.5t-26 145.5 zM362 305q0 -66 37 -97.5t90 -31.5q47 0 77 13.5t48 29.5v273l-108 -21q-80 -16 -112 -45t-32 -102v-19z" />
<glyph unicode="&#xe7;" horiz-adv-x="909" d="M338 -203q0 92 59.5 145.5t143.5 53.5q86 0 143 -52t57 -142q0 -70 -28.5 -129.5t-71.5 -129.5l-176 -280l-86 35l90 344l-82 24q-14 16 -31.5 49t-17.5 82zM63 543q0 274 121 422.5t357 148.5q111 0 194.5 -24.5t124.5 -47.5l-47 -237q-53 16 -117.5 30.5t-134.5 14.5 q-43 0 -74.5 -10.5t-51 -40t-30 -83.5t-10.5 -145v-47q0 -90 9.5 -147.5t30 -91t52 -47t74.5 -13.5q78 0 150.5 20.5t126.5 41.5l28 -238q-47 -27 -128 -52.5t-197 -25.5q-236 0 -357 152t-121 420z" />
<glyph unicode="&#xe8;" horiz-adv-x="1003" d="M29 391v273l133 57v612h350v-465l195 82v-272l-195 -82v-328h440v-268h-790v449z" />
<glyph unicode="&#xe9;" horiz-adv-x="1325" d="M66 670q0 147 32.5 273t104 218t183.5 144.5t269 52.5q145 0 252 -43l94 172l175 -94l-103 -189q90 -94 130 -229t40 -301q0 -143 -32.5 -271.5t-104.5 -223.5t-184.5 -151.5t-270.5 -56.5q-66 0 -123 10.5t-108 28.5l-113 -207l-174 97l119 217q-98 96 -142 238.5 t-44 314.5zM428 616q0 -94 6 -165l346 632q-45 23 -129 23q-57 0 -99 -14.5t-69.5 -54.5t-41 -112.5t-13.5 -187.5v-121zM541 229q43 -20 114 -20q57 0 99.5 18.5t70 64.5t42 127t14.5 204v122v54q0 27 -2 49z" />
<glyph unicode="&#xea;" horiz-adv-x="1771" d="M66 670q0 317 145 490t442 173h989v-278h-479v-256h396v-260h-396v-271h518v-268h-1011q-301 0 -452.5 176.5t-151.5 493.5zM434 627q0 -117 15.5 -187.5t46 -109.5t76.5 -52.5t106 -13.5h135v795h-131q-61 0 -107.5 -11.5t-78 -45t-47 -97t-15.5 -168.5v-110z" />
<glyph unicode="&#xeb;" horiz-adv-x="950" d="M86 889q0 223 103.5 346t295.5 123q190 0 295 -122t105 -343q0 -223 -104.5 -348t-295.5 -125q-193 0 -296 124t-103 345zM371 868q0 -76 6 -123t20.5 -74.5t36 -37.5t51.5 -10q31 0 52.5 10t36 36.5t20.5 72.5t6 120v49q0 76 -6 123t-19.5 73t-36 35t-53.5 9 q-33 0 -54 -9t-34.5 -34t-19.5 -71t-6 -119v-50z" />
<glyph unicode="&#xec;" horiz-adv-x="589" d="M94 1842q0 70 28.5 129t71.5 129l176 280l86 -35l-90 -344l82 -24q14 -16 31.5 -49t17.5 -82q0 -92 -59.5 -145.5t-142.5 -53.5q-86 0 -143.5 52.5t-57.5 142.5zM119 1356q0 80 52 124t124 44t124 -44t52 -124t-52 -123t-124 -43t-124 43t-52 123zM135 0v1090h320v-1090 h-320z" />
<glyph unicode="&#xed;" horiz-adv-x="589" d="M84 1854q0 94 61.5 151t149.5 57t149.5 -57t61.5 -151t-61.5 -150.5t-149.5 -56.5t-149.5 56.5t-61.5 150.5zM119 1356q0 80 52 124t124 44t124 -44t52 -124t-52 -123t-124 -43t-124 43t-52 123zM135 0v1090h320v-1090h-320z" />
<glyph unicode="&#xee;" horiz-adv-x="589" d="M-150 1647l310 657h256l323 -657h-309l-92 229l-58 256l-57 -256l-98 -229h-275zM119 1356q0 80 52 124t124 44t124 -44t52 -124t-52 -123t-124 -43t-124 43t-52 123zM135 0v1090h320v-1090h-320z" />
<glyph unicode="&#xef;" horiz-adv-x="589" d="M-242 2074v199h129q-2 16 -2 35v37v53h-127v199h150q20 98 62 178t108.5 137t162 89t222.5 32q111 0 193.5 -20.5t144.5 -51.5l-41 -262q-43 14 -80 25.5t-71 19.5t-69.5 12t-78.5 4q-82 0 -131.5 -33.5t-71.5 -129.5h311v-199h-325v-125h325v-199h-303q27 -98 79 -135 t124 -37q84 0 150.5 26t146.5 64l65 -247q-53 -35 -152.5 -67t-230.5 -32q-119 0 -210 32t-155.5 88t-105.5 135t-63 173h-156zM119 1356q0 80 52 124t124 44t124 -44t52 -124t-52 -123t-124 -43t-124 43t-52 123zM135 0v1090h320v-1090h-320z" />
<glyph unicode="&#xf1;" horiz-adv-x="1564" d="M63 283q0 90 21.5 150.5t71 100t130.5 65.5t199 46l142 23v88q0 41 -36 65.5t-102 24.5t-152.5 -21.5t-191.5 -56.5l-45 236q96 47 201 78.5t225 31.5q92 0 165 -24.5t114 -90.5q47 57 120.5 86t149.5 29q119 0 201 -36t133 -104.5t73.5 -165.5t22.5 -220v-148h-567 q2 -63 12.5 -104t32 -65.5t58 -35t92.5 -10.5q86 0 164.5 22.5t140.5 41.5l24 -234q-53 -29 -143 -56.5t-207 -27.5q-147 0 -241.5 50.5t-153.5 146.5l-115 -145q-35 -20 -88 -36t-129 -16q-66 0 -124 16.5t-102 53.5t-70 96.5t-26 145.5zM362 305q0 -66 37 -97.5t90 -31.5 q72 0 109 31t70 78q-14 47 -21.5 99t-11.5 112l-129 -25q-80 -16 -112 -45t-32 -102v-19zM938 645h270v45q0 113 -28.5 157t-100.5 44q-80 0 -108.5 -55.5t-32.5 -190.5z" />
<glyph unicode="&#xf2;" horiz-adv-x="1081" d="M340 1432q0 70 28.5 129t71.5 129l176 280l86 -35l-90 -344l82 -24q14 -16 31.5 -49t17.5 -82q0 -92 -59.5 -145.5t-142.5 -53.5q-86 0 -143.5 52.5t-57.5 142.5zM63 543q0 274 122 422.5t356 148.5q231 0 354 -148.5t123 -416.5q0 -274 -123 -426t-354 -152 q-233 0 -355.5 152t-122.5 420zM395 524q0 -96 7.5 -157.5t23.5 -96t44 -47t71 -12.5q41 0 69.5 12.5t45 46t23.5 94t7 154.5v45q0 98 -6 157.5t-23.5 93.5t-45 45t-70.5 11t-72 -11t-45 -44t-22.5 -91t-6.5 -153v-47z" />
<glyph unicode="&#xf3;" horiz-adv-x="1081" d="M330 1444q0 94 61.5 151t149.5 57t149.5 -57t61.5 -151t-61.5 -150.5t-149.5 -56.5t-149.5 56.5t-61.5 150.5zM63 543q0 274 122 422.5t356 148.5q231 0 354 -148.5t123 -416.5q0 -274 -123 -426t-354 -152q-233 0 -355.5 152t-122.5 420zM395 524q0 -96 7.5 -157.5 t23.5 -96t44 -47t71 -12.5q41 0 69.5 12.5t45 46t23.5 94t7 154.5v45q0 98 -6 157.5t-23.5 93.5t-45 45t-70.5 11t-72 -11t-45 -44t-22.5 -91t-6.5 -153v-47z" />
<glyph unicode="&#xf4;" horiz-adv-x="1081" d="M96 1237l310 657h256l323 -657h-309l-92 229l-58 256l-57 -256l-98 -229h-275zM63 543q0 274 122 422.5t356 148.5q231 0 354 -148.5t123 -416.5q0 -274 -123 -426t-354 -152q-233 0 -355.5 152t-122.5 420zM395 524q0 -96 7.5 -157.5t23.5 -96t44 -47t71 -12.5 q41 0 69.5 12.5t45 46t23.5 94t7 154.5v45q0 98 -6 157.5t-23.5 93.5t-45 45t-70.5 11t-72 -11t-45 -44t-22.5 -91t-6.5 -153v-47z" />
<glyph unicode="&#xf5;" horiz-adv-x="589" d="M135 0v1090h320v-1090h-320z" />
<glyph unicode="&#xf6;" horiz-adv-x="1081" d="M4 1665v199h129q-2 16 -2 35v37v53h-127v199h150q20 98 62 178t108.5 137t162 89t222.5 32q111 0 193.5 -20.5t144.5 -51.5l-41 -262q-43 14 -80 25.5t-71 19.5t-69.5 12t-78.5 4q-82 0 -131.5 -33.5t-71.5 -129.5h311v-199h-325v-125h325v-199h-303q27 -98 79 -135 t124 -37q84 0 150.5 26t146.5 64l65 -247q-53 -35 -152.5 -67t-230.5 -32q-119 0 -210 32t-155.5 88t-105.5 135t-63 173h-156zM63 543q0 274 122 422.5t356 148.5q231 0 354 -148.5t123 -416.5q0 -274 -123 -426t-354 -152q-233 0 -355.5 152t-122.5 420zM395 524 q0 -96 7.5 -157.5t23.5 -96t44 -47t71 -12.5q41 0 69.5 12.5t45 46t23.5 94t7 154.5v45q0 98 -6 157.5t-23.5 93.5t-45 45t-70.5 11t-72 -11t-45 -44t-22.5 -91t-6.5 -153v-47z" />
<glyph unicode="&#xf8;" horiz-adv-x="696" d="M49 446v271l139 76v677h320v-501l139 75v-270l-139 -76v-698h-320v522z" />
<glyph unicode="&#xf9;" horiz-adv-x="1081" d="M63 543q0 274 122 422.5t356 148.5q59 0 109 -10t95 -29l82 146l162 -86l-98 -170q121 -145 121 -416q0 -274 -120 -426t-351 -152q-53 0 -101.5 8.5t-91.5 24.5l-100 -178l-162 88l111 197q-134 149 -134 432zM387 483q0 -18 2 -37l238 422q-27 16 -86 17 q-43 0 -73 -13.5t-48.5 -49.5t-25.5 -96t-7 -155v-47v-41zM463 205q29 -14 78 -15q41 0 70.5 15.5t48 53.5t26.5 101.5t8 157.5v45v49z" />
<glyph unicode="&#xfa;" horiz-adv-x="1632" d="M63 543q0 274 122 422.5t356 148.5q92 0 174 -31.5t129 -103.5q51 66 129 100.5t166 34.5q119 0 200.5 -36t133 -104.5t74 -165.5t22.5 -220v-148h-568q2 -63 12.5 -104t32 -65.5t58.5 -35t92 -10.5q86 0 165 22.5t140 41.5l25 -234q-53 -29 -143.5 -56.5t-206.5 -27.5 q-117 0 -199 34t-133 106q-55 -72 -128 -106t-186 -34q-225 0 -346 152t-121 420zM395 524q0 -96 7.5 -157.5t23.5 -96t44 -47t71 -12.5q41 0 69.5 12.5t45 46t23.5 94t7 154.5v45q0 98 -6 157.5t-23.5 93.5t-45 45t-70.5 11t-72 -11t-45 -44t-22.5 -91t-6.5 -153v-47z M1001 645h271v45q0 113 -29 157t-100 44q-80 0 -109 -55.5t-33 -190.5z" />
<glyph unicode="&#xfb;" horiz-adv-x="1331" d="M125 0v954q0 268 128 406.5t398 138.5q254 0 361.5 -127t107.5 -373v-122l-112 -13q-59 -6 -94 -14t-52.5 -20.5t-22.5 -31t-5 -44.5q0 -27 10 -43.5t31.5 -26.5t55.5 -16t81 -17q49 -10 96 -28.5t83 -54.5t58.5 -93t22.5 -145q0 -84 -21.5 -150.5t-69.5 -113t-125 -71 t-186 -24.5q-123 0 -196.5 23.5t-122.5 46.5l27 223q51 -18 107 -37.5t138 -19.5q51 0 81 6t44.5 16.5t17.5 26.5t3 35q0 23 -5.5 35t-23.5 22t-55 19.5t-101 23.5q-51 12 -94 31.5t-75.5 58.5t-51 99.5t-18.5 152.5q0 66 15 114t40 82t53.5 57.5t55.5 39.5l116 21v24 q0 41 -5 75t-23.5 58.5t-53 37.5t-94.5 13q-111 0 -158 -52t-47 -181v-1022h-319z" />
<glyph unicode="&#xfc;" horiz-adv-x="1138" d="M28 1665v199h129q-2 16 -2 35v37v53h-127v199h150q20 98 62 178t108.5 137t162 89t222.5 32q111 0 193.5 -20.5t144.5 -51.5l-41 -262q-43 14 -80 25.5t-71 19.5t-69.5 12t-78.5 4q-82 0 -131.5 -33.5t-71.5 -129.5h311v-199h-325v-125h325v-199h-303q27 -98 79 -135 t124 -37q84 0 150.5 26t146.5 64l65 -247q-53 -35 -152.5 -67t-230.5 -32q-119 0 -210 32t-155.5 88t-105.5 135t-63 173h-156zM117 336v754h321v-771q0 -61 25.5 -84.5t79.5 -23.5q41 0 75.5 8t73.5 25v846h322v-1090h-226l-90 141l-106 -137q-43 -16 -89 -24.5t-91 -8.5 q-152 0 -223.5 97.5t-71.5 267.5z" />
<glyph unicode="&#xfd;" d="M301 1444q0 94 61.5 151t149.5 57t149.5 -57t61.5 -151t-61.5 -150.5t-149.5 -56.5t-149.5 56.5t-61.5 150.5zM18 1090h328l133 -451l49 -381l58 381l125 451h295l-449 -1422h-301l125 379z" />
<glyph unicode="&#xff;" d="M-25 1665v199h129q-2 16 -2 35v37v53h-127v199h150q20 98 62 178t108.5 137t162 89t222.5 32q111 0 193.5 -20.5t144.5 -51.5l-41 -262q-43 14 -80 25.5t-71 19.5t-69.5 12t-78.5 4q-82 0 -131.5 -33.5t-71.5 -129.5h311v-199h-325v-125h325v-199h-303q27 -98 79 -135 t124 -37q84 0 150.5 26t146.5 64l65 -247q-53 -35 -152.5 -67t-230.5 -32q-119 0 -210 32t-155.5 88t-105.5 135t-63 173h-156zM18 1090h328l133 -451l49 -381l58 381l125 451h295l-449 -1422h-301l125 379z" />
<glyph unicode="&#x152;" horiz-adv-x="2430" d="M1462 0v1333h840v-278h-490v-256h406v-260h-406v-271h529v-268h-879zM74 670q0 147 32.5 273t104.5 218t183.5 144.5t269.5 52.5q160 0 271.5 -52.5t182 -143.5t102 -216t31.5 -272q0 -143 -32.5 -271.5t-104.5 -223.5t-184.5 -151.5t-270.5 -56.5t-269 54.5t-182 149.5 t-102.5 222.5t-31.5 272.5zM442 616q0 -125 13.5 -202.5t41 -120.5t69.5 -58.5t98 -15.5q57 0 98 16.5t67.5 61.5t40 124t13.5 202v122q0 115 -13.5 183.5t-40 105.5t-68.5 49.5t-102 12.5q-57 0 -98 -12.5t-67.5 -51.5t-39 -109.5t-12.5 -185.5v-121z" />
<glyph unicode="&#x153;" horiz-adv-x="2107" d="M1144 543q0 274 123 422.5t346 148.5q119 0 201 -36t133.5 -104.5t74 -165.5t22.5 -220v-148h-568q2 -63 12.5 -104t32 -65.5t58.5 -35t92 -10.5q86 0 160.5 21.5t136.5 40.5l37 -232q-47 -27 -140.5 -55.5t-214.5 -28.5q-256 0 -381 149t-125 423zM1476 645h271v45 q0 113 -29 157t-100 44q-80 0 -109 -55.5t-33 -190.5zM63 543q0 274 122 422.5t356 148.5q231 0 354 -148.5t123 -416.5q0 -274 -123 -426t-354 -152q-233 0 -355.5 152t-122.5 420zM395 524q0 -96 7.5 -157.5t23.5 -96t44 -47t71 -12.5q41 0 69.5 12.5t45 46t23.5 94 t7 154.5v45q0 98 -6 157.5t-23.5 93.5t-45 45t-70.5 11t-72 -11t-45 -44t-22.5 -91t-6.5 -153v-47z" />
<glyph unicode="&#x178;" horiz-adv-x="1171" d="M49 1908v199h129q-2 16 -2 35v37v53h-127v199h150q20 98 62 178t108.5 137t162 89t222.5 32q111 0 193.5 -20.5t144.5 -51.5l-41 -262q-43 14 -80 25.5t-71 19.5t-69.5 12t-78.5 4q-82 0 -131.5 -33.5t-71.5 -129.5h311v-199h-325v-125h325v-199h-303q27 -98 79 -135 t124 -37q84 0 150.5 26t146.5 64l65 -247q-53 -35 -152.5 -67t-230.5 -32q-119 0 -210 32t-155.5 88t-105.5 135t-63 173h-156zM20 1333h369l166 -432l63 -313l54 313l159 432h320l-379 -848v-485h-350v471z" />
<glyph unicode="&#x2c6;" horiz-adv-x="923" d="M16 758l310 657h256l323 -657h-309l-92 229l-58 256l-57 -256l-98 -229h-275z" />
<glyph unicode="&#x2000;" horiz-adv-x="1515" />
<glyph unicode="&#x2001;" horiz-adv-x="3033" />
<glyph unicode="&#x2002;" horiz-adv-x="1515" />
<glyph unicode="&#x2003;" horiz-adv-x="3033" />
<glyph unicode="&#x2004;" horiz-adv-x="1009" />
<glyph unicode="&#x2005;" horiz-adv-x="757" />
<glyph unicode="&#x2006;" horiz-adv-x="503" />
<glyph unicode="&#x2007;" horiz-adv-x="503" />
<glyph unicode="&#x2008;" horiz-adv-x="378" />
<glyph unicode="&#x2009;" horiz-adv-x="606" />
<glyph unicode="&#x200a;" horiz-adv-x="167" />
<glyph unicode="&#x2010;" horiz-adv-x="673" d="M90 471v285h494v-285h-494z" />
<glyph unicode="&#x2011;" horiz-adv-x="673" d="M90 471v285h494v-285h-494z" />
<glyph unicode="&#x2012;" horiz-adv-x="673" d="M90 471v285h494v-285h-494z" />
<glyph unicode="&#x2013;" d="M90 471v285h844v-285h-844z" />
<glyph unicode="&#x2014;" horiz-adv-x="2048" d="M90 471v285h1868v-285h-1868z" />
<glyph unicode="&#x2018;" horiz-adv-x="559" d="M78 963q0 70 28.5 129t71.5 129l176 280l86 -35l-90 -344l82 -24q14 -16 31.5 -49t17.5 -82q0 -92 -59.5 -145.5t-142.5 -53.5q-86 0 -143.5 52.5t-57.5 142.5z" />
<glyph unicode="&#x2019;" horiz-adv-x="559" d="M78 1239q0 92 59.5 145.5t143.5 53.5q86 0 143 -52.5t57 -142.5q0 -70 -28.5 -129t-71.5 -129l-176 -280l-86 34l90 344l-82 25q-14 16 -31.5 49t-17.5 82z" />
<glyph unicode="&#x201c;" horiz-adv-x="980" d="M80 1108v309h350v-309l-119 -377h-112zM551 1108v309h350v-309l-119 -377h-112z" />
<glyph unicode="&#x201d;" horiz-adv-x="980" d="M80 1108v309h350v-309l-119 -377h-112zM551 1108v309h350v-309l-119 -377h-112z" />
<glyph unicode="&#x2026;" horiz-adv-x="1769" d="M1264 178q0 94 61.5 151.5t149.5 57.5t149.5 -57.5t61.5 -151.5t-61.5 -150.5t-149.5 -56.5t-149.5 56.5t-61.5 150.5zM674 178q0 94 61.5 151.5t149.5 57.5t149.5 -57.5t61.5 -151.5t-61.5 -150.5t-149.5 -56.5t-149.5 56.5t-61.5 150.5zM84 178q0 94 61.5 151.5 t149.5 57.5t149.5 -57.5t61.5 -151.5t-61.5 -150.5t-149.5 -56.5t-149.5 56.5t-61.5 150.5z" />
<glyph unicode="&#x202f;" horiz-adv-x="606" />
<glyph unicode="&#x2039;" horiz-adv-x="870" d="M80 483v250l700 352v-311l-303 -117l-215 -47l215 -47l303 -121v-295z" />
<glyph unicode="&#x203a;" horiz-adv-x="870" d="M90 147v312l303 116l215 48l-215 47l-303 121v294l701 -335v-250z" />
<glyph unicode="&#x205f;" horiz-adv-x="757" />
<glyph unicode="&#x2122;" horiz-adv-x="2711" d="M1241 0v1333h441l147 -647l59 -534l72 534l152 647h462v-1333h-346v291l68 876l-121 -614l-125 -553h-354l-125 553l-117 614l64 -880v-287h-277zM53 1055v278h998v-278h-324v-1055h-350v1055h-324z" />
<glyph unicode="&#xe000;" horiz-adv-x="1090" d="M0 1090h1090v-1090h-1090v1090z" />
<glyph unicode="&#xfb01;" horiz-adv-x="1323" d="M852 1356q0 80 52 124t124 44t124 -44t52 -124t-52 -123t-124 -43t-124 43t-52 123zM868 0v1090h320v-1090h-320zM33 877v213h121v18q0 188 81.5 289.5t258.5 101.5q86 0 150.5 -17.5t92.5 -33.5l-16 -188h-135q-59 0 -86 -17.5t-27 -66.5v-86h227v-213h-227v-877h-319 v877h-121z" />
<glyph unicode="&#xfb02;" horiz-adv-x="1327" d="M870 0v1470h320v-1470h-320zM33 877v213h121v18q0 188 81.5 289.5t258.5 101.5q86 0 150.5 -17.5t92.5 -33.5l-16 -188h-135q-59 0 -86 -17.5t-27 -66.5v-86h227v-213h-227v-877h-319v877h-121z" />
<glyph unicode="&#xfb03;" horiz-adv-x="2056" d="M1585 1356q0 80 52 124t124 44t124 -44t52 -124t-52 -123t-124 -43t-124 43t-52 123zM1601 0v1090h320v-1090h-320zM766 877v213h121v18q0 188 81.5 289.5t258.5 101.5q86 0 150.5 -17.5t92.5 -33.5l-16 -188h-135q-59 0 -86 -17.5t-27 -66.5v-86h227v-213h-227v-877 h-319v877h-121zM33 877v213h121v18q0 188 81.5 289.5t258.5 101.5q86 0 150.5 -17.5t92.5 -33.5l-16 -188h-135q-59 0 -86 -17.5t-27 -66.5v-86h227v-213h-227v-877h-319v877h-121z" />
<glyph unicode="&#xfb04;" horiz-adv-x="2060" d="M1603 0v1470h320v-1470h-320zM766 877v213h121v18q0 188 81.5 289.5t258.5 101.5q86 0 150.5 -17.5t92.5 -33.5l-16 -188h-135q-59 0 -86 -17.5t-27 -66.5v-86h227v-213h-227v-877h-319v877h-121zM33 877v213h121v18q0 188 81.5 289.5t258.5 101.5q86 0 150.5 -17.5 t92.5 -33.5l-16 -188h-135q-59 0 -86 -17.5t-27 -66.5v-86h227v-213h-227v-877h-319v877h-121z" />
</font>
</defs>
</svg>
